<svg xmlns="http://www.w3.org/2000/svg" version="1.1" xmlns:xlink="http://www.w3.org/1999/xlink" xmlns:svgjs="http://svgjs.dev/svgjs" width="1000" height="1000" viewBox="0 0 1000 1000"><rect width="1000" height="1000" fill="#ffffff"></rect><g transform="matrix(0.7,0,0,0.7,150.36400966992886,260.0944129554656)"><svg viewBox="0 0 360 247" data-background-color="#471aa0" preserveAspectRatio="xMidYMid meet" height="686" width="1000" xmlns="http://www.w3.org/2000/svg" xmlns:xlink="http://www.w3.org/1999/xlink"><g id="tight-bounds" transform="matrix(1,0,0,1,-0.18720497310627593,-0.09999999999999432)"><svg viewBox="0 0 360.374407372755 247.2" height="247.2" width="360.374407372755"><g><svg viewBox="0 0 395.5199999999999 271.30823388040557" height="247.2" width="360.374407372755"><g transform="matrix(1,0,0,1,0,198.1224393745826)"><svg viewBox="0 0 395.5199999999999 73.18579450582297" height="73.18579450582297" width="395.5199999999999"><g id="textblocktransform"><svg viewBox="0 0 395.5199999999999 73.18579450582297" height="73.18579450582297" width="395.5199999999999" id="textblock"><g><svg viewBox="0 0 395.5199999999999 41.8844544053789" height="41.8844544053789" width="395.5199999999999"><g transform="matrix(1,0,0,1,0,0)"><svg width="395.5199999999999" viewBox="2.049999952316284 -29.540000915527344 348.55999755859375 36.90999984741211" height="41.8844544053789" data-palette-color="#ffffff"><path d="M18.55 0.2L17.82 0.29Q13.28 0.29 9.72-1.51 6.15-3.32 4.1-6.54 2.05-9.77 2.05-13.92L2.05-13.92Q2.05-18.31 4.08-21.73 6.1-25.15 9.69-27.12 13.28-29.1 17.82-29.1L17.82-29.1Q22.31-29.1 25.71-27.29 29.1-25.49 31.03-22.24 32.96-18.99 32.96-14.79L32.96-14.79Q32.96-10.84 31.54-8.01 30.13-5.18 27.93-3.39 25.73-1.61 23.22-0.71 20.7 0.2 18.55 0.2L18.55 0.2ZM29.98 7.37L29.98 7.37Q26.86 7.37 24.56 6.76 22.27 6.15 20.61 5.13 18.95 4.1 17.68 2.98L17.68 2.98Q16.85 2.2 16.19 1.66 15.53 1.12 14.97 0.71 14.4 0.29 13.87-0.02 13.33-0.34 12.7-0.63L12.7-0.63 20.8-0.63Q22.66-0.63 24.61-0.2 26.56 0.24 27.98 1.07L27.98 1.07Q29.93 2.15 31.03 2.54 32.13 2.93 33.4 2.93L33.4 2.93Q33.98 2.93 34.77 2.83 35.55 2.73 36.47 2.49L36.47 2.49 37.21 5.32Q35.94 6.25 34.08 6.81 32.23 7.37 29.98 7.37ZM18.16-3.52L18.16-3.52Q20.26-3.52 21.63-4.64 23-5.76 23.68-7.98 24.37-10.21 24.37-13.48L24.37-13.48Q24.37-17.24 23.49-19.92 22.61-22.61 21.02-24.1 19.43-25.59 17.24-25.59L17.24-25.59Q14.21-25.59 12.45-22.92 10.69-20.26 10.69-15.48L10.69-15.48Q10.69-11.96 11.65-9.25 12.6-6.54 14.28-5.03 15.97-3.52 18.16-3.52ZM36.52-26.03L36.67-28.66 50.68-28.66 50.83-26.03 47.7-25.2Q47.65-24.61 47.58-23.44 47.51-22.27 47.48-20.75 47.46-19.24 47.46-17.58L47.46-17.58 47.46-13.33Q47.46-10.55 48.17-8.59 48.87-6.64 50.39-5.62 51.9-4.59 54.2-4.59L54.2-4.59Q56.49-4.59 57.93-5.59 59.37-6.59 60.06-8.52 60.74-10.45 60.74-13.28L60.74-13.28 60.74-16.7Q60.74-18.65 60.69-20.53 60.64-22.41 60.59-23.73 60.54-25.05 60.45-25.2L60.45-25.2 57.03-26.03 57.18-28.66 68.5-28.66 68.65-26.03 65.48-25.2Q65.38-25.05 65.31-23.73 65.23-22.41 65.18-20.53 65.13-18.65 65.13-16.7L65.13-16.7 65.13-12.26Q65.13-8.5 63.72-5.62 62.3-2.73 59.59-1.15 56.88 0.44 53.12 0.44L53.12 0.44Q46.77 0.44 43.38-2.91 39.99-6.25 39.99-12.4L39.99-12.4 39.99-17.58Q39.99-19.38 39.94-21.07 39.89-22.75 39.82-23.88 39.74-25 39.65-25.2L39.65-25.2 36.52-26.03ZM85.25 0L72.07 0 71.92-2.64 75.04-3.47Q75.04-3.76 75.07-4.64 75.09-5.52 75.12-6.69 75.14-7.86 75.17-9.03 75.19-10.21 75.19-11.13L75.19-11.13 75.19-17.58Q75.19-19.53 75.14-21.19 75.09-22.85 75-23.93 74.9-25 74.8-25.2L74.8-25.2 71.67-26.03 71.82-28.66 85.1-28.66Q91.01-28.66 93.82-26.86 96.63-25.05 96.63-21.09L96.63-21.09Q96.63-18.7 95.11-16.82 93.6-14.94 90.96-13.87 88.33-12.79 84.91-12.79L84.91-12.79 81.54-12.79 81.54-15.82 83.74-15.82Q85.98-15.82 87.4-17.33 88.81-18.85 88.81-21.24L88.81-21.24Q88.81-23.44 87.64-24.58 86.47-25.73 84.22-25.73L84.22-25.73 82.66-25.73Q82.66-25.59 82.64-24.78 82.61-23.97 82.59-22.78 82.56-21.58 82.56-20.26 82.56-18.95 82.56-17.82L82.56-17.82 82.56-11.13Q82.56-10.11 82.59-8.59 82.61-7.08 82.66-5.66 82.71-4.25 82.71-3.47L82.71-3.47 85.4-2.64 85.25 0ZM98.33 0.59L98.33 0.59Q95.41 0.59 93.11-0.32 90.82-1.22 89.11-3.03 87.4-4.83 86.18-7.57L86.18-7.57 83.64-13.57 89.59-14.99 95.6-6.79Q96.48-5.62 97.43-4.69 98.38-3.76 99.46-3.13 100.53-2.49 101.75-2.15L101.75-2.15 101.7 0.29Q100.83 0.49 100 0.54 99.16 0.59 98.33 0.59ZM109.17 0L99.31 0 99.16-2.64 101.7-3.47 111.61-27.05 116.06-29.54 127.53-3.47 130.07-2.64 129.92 0 115.81 0 115.57-2.64 118.74-3.47 116.25-9.42 115.72-11.18 110.98-22.12 112.54-21.34 108.83-11.38 108.34-9.91 106.14-3.47 109.32-2.64 109.17 0ZM107.07-8.06L107.07-8.06 107.07-11.62Q108.05-11.57 109.2-11.47 110.34-11.38 112.25-11.38L112.25-11.38Q114.15-11.38 115.35-11.47 116.55-11.57 117.47-11.62L117.47-11.62 117.47-8.11Q116.89-8.11 115.64-8.15 114.4-8.2 112.25-8.2L112.25-8.2Q110.05-8.2 108.88-8.15 107.71-8.11 107.07-8.06ZM157.66-9.67L155.31-9.67 155.31-16.06Q155.31-18.26 155.29-20.24 155.26-22.22 155.19-23.58 155.12-24.95 154.97-25.2L154.97-25.2 151.55-26.03 151.7-28.66 162.49-28.66 162.64-26.03 159.46-25.2Q159.41-24.95 159.32-23.61 159.22-22.27 159.19-20.26 159.17-18.26 159.17-16.06L159.17-16.06 159.17-7.52Q159.17-5.03 159.15-3.22 159.12-1.42 159.12 0.29L159.12 0.29 155.9 0.29 135.68-21.97 138.81-22.02 138.81-13.38Q138.81-10.89 138.86-8.74 138.91-6.59 138.98-5.2 139.05-3.81 139.2-3.47L139.2-3.47 142.67-2.64 142.52 0 131.48 0 131.34-2.64 134.51-3.47Q134.61-3.81 134.66-5.27 134.71-6.74 134.76-8.91 134.8-11.08 134.8-13.38L134.8-13.38 134.8-19.24Q134.8-20.17 134.76-21.41 134.71-22.66 134.63-23.75 134.56-24.85 134.51-25.2L134.51-25.2 131.34-26.03 131.48-28.66 139.59-28.66 157.66-9.67ZM202.87-28.96L202.87-28.96 204.04-20.02 200.72-19.78 198.81-25.44Q198.32-25.54 197.74-25.56 197.15-25.59 196.42-25.59L196.42-25.59 194.86-25.59Q194.42-25.59 193.95-25.59 193.49-25.59 193.3-25.49L193.3-25.49Q193.3-25.2 193.27-23.66 193.25-22.12 193.22-19.97 193.2-17.82 193.2-15.53L193.2-15.53 193.2-11.67Q193.2-9.08 193.25-6.88 193.3-4.69 193.34-3.47L193.34-3.47 197.64-2.73 197.49 0 181.33 0 181.19-2.73 185.48-3.47Q185.58-4.69 185.63-6.88 185.68-9.08 185.68-11.67L185.68-11.67 185.68-15.53Q185.68-17.82 185.65-19.97 185.63-22.12 185.61-23.66 185.58-25.2 185.53-25.49L185.53-25.49Q185.39-25.59 184.92-25.59 184.46-25.59 184.02-25.59L184.02-25.59 182.41-25.59Q181.67-25.59 181.02-25.56 180.36-25.54 179.87-25.44L179.87-25.44 178.11-19.68 174.79-19.97 175.77-28.96Q176.3-28.91 177.28-28.88 178.26-28.86 179.4-28.81 180.55-28.76 181.63-28.71 182.7-28.66 183.38-28.66L183.38-28.66 195.3-28.66Q195.98-28.66 197.06-28.71 198.13-28.76 199.28-28.81 200.42-28.86 201.4-28.88 202.38-28.91 202.87-28.96ZM233.23-7.86L230.94 0.34Q229.47 0.2 227.3 0.1 225.13 0 223.47 0L223.47 0 206.62 0 206.48-2.64 209.6-3.47Q209.7-3.71 209.8-4.79 209.89-5.86 209.94-7.52 209.99-9.18 209.99-11.13L209.99-11.13 209.99-17.58Q209.99-19.53 209.94-21.22 209.89-22.9 209.8-23.95 209.7-25 209.6-25.2L209.6-25.2 206.48-26.03 206.62-28.66 221.37-28.66Q222.49-28.66 224.08-28.69 225.67-28.71 227.18-28.78 228.69-28.86 229.67-28.96L229.67-28.96 231.09-21.44 228.06-21 226.15-25.39Q225.42-25.54 224.91-25.59 224.4-25.63 223.81-25.63L223.81-25.63 220.73-25.63Q219.81-25.63 218.9-25.61 218-25.59 217.51-25.49L217.51-25.49Q217.46-25.05 217.44-24.29 217.41-23.54 217.39-22.31 217.37-21.09 217.37-19.34L217.37-19.34 217.37-10.01Q217.37-8.25 217.39-6.98 217.41-5.71 217.44-4.86 217.46-4 217.51-3.52L217.51-3.52Q218.44-3.37 219.46-3.32 220.49-3.27 222.15-3.27L222.15-3.27 224.05-3.27Q225.37-3.27 225.93-3.3 226.5-3.32 226.79-3.37 227.08-3.42 227.52-3.47L227.52-3.47 230.26-8.45 233.23-7.86ZM227.38-9.67L224.45-9.67 224.01-12.94Q223.66-12.94 222.86-12.96 222.05-12.99 221.08-12.99L221.08-12.99 218.83-12.99Q217.95-12.99 217.19-12.94 216.44-12.89 216.19-12.84L216.19-12.84 216.19-16.6Q216.44-16.55 217.19-16.48 217.95-16.41 218.83-16.41L218.83-16.41 221.08-16.41Q222.05-16.41 222.86-16.43 223.66-16.46 224.01-16.46L224.01-16.46 224.45-19.68 227.38-19.68 227.38-9.67ZM245.54 0.44L245.54 0.44Q243.49 0.44 240.95-0.17 238.41-0.78 236.5-1.81L236.5-1.81 236.31-9.33 239.82-9.52 241.53-4.25Q242.41-3.71 243.71-3.34 245-2.98 246.17-2.98L246.17-2.98Q248.27-2.98 249.35-3.81 250.42-4.64 250.42-6.15L250.42-6.15Q250.42-7.76 249.39-8.76 248.37-9.77 246.78-10.45 245.19-11.13 243.39-11.79 241.58-12.45 239.99-13.45 238.41-14.45 237.38-16.04 236.36-17.63 236.36-20.17L236.36-20.17Q236.36-22.85 237.92-24.9 239.48-26.95 242.31-28.1 245.15-29.25 248.91-29.25L248.91-29.25Q249.98-29.25 251.32-29.05 252.67-28.86 253.94-28.56 255.2-28.27 256.13-27.83L256.13-27.83 256.77-20.36 253.35-20.17 251.74-25.2Q250.27-25.88 248.42-25.88L248.42-25.88Q246.66-25.88 245.39-24.95 244.12-24.02 244.12-22.22L244.12-22.22Q244.12-20.65 245.15-19.68 246.17-18.7 247.78-17.99 249.39-17.29 251.23-16.58 253.06-15.87 254.69-14.87 256.33-13.87 257.35-12.35 258.38-10.84 258.38-8.45L258.38-8.45Q258.38-5.91 256.77-3.88 255.16-1.86 252.27-0.71 249.39 0.44 245.54 0.44ZM287.97-28.96L287.97-28.96 289.14-20.02 285.82-19.78 283.91-25.44Q283.42-25.54 282.84-25.56 282.25-25.59 281.52-25.59L281.52-25.59 279.96-25.59Q279.52-25.59 279.05-25.59 278.59-25.59 278.4-25.49L278.4-25.49Q278.4-25.2 278.37-23.66 278.35-22.12 278.32-19.97 278.3-17.82 278.3-15.53L278.3-15.53 278.3-11.67Q278.3-9.08 278.35-6.88 278.4-4.69 278.44-3.47L278.44-3.47 282.74-2.73 282.59 0 266.43 0 266.29-2.73 270.58-3.47Q270.68-4.69 270.73-6.88 270.78-9.08 270.78-11.67L270.78-11.67 270.78-15.53Q270.78-17.82 270.75-19.97 270.73-22.12 270.71-23.66 270.68-25.2 270.63-25.49L270.63-25.49Q270.49-25.59 270.02-25.59 269.56-25.59 269.12-25.59L269.12-25.59 267.51-25.59Q266.77-25.59 266.12-25.56 265.46-25.54 264.97-25.44L264.97-25.44 263.21-19.68 259.89-19.97 260.87-28.96Q261.4-28.91 262.38-28.88 263.36-28.86 264.5-28.81 265.65-28.76 266.73-28.71 267.8-28.66 268.48-28.66L268.48-28.66 280.4-28.66Q281.08-28.66 282.16-28.71 283.23-28.76 284.38-28.81 285.52-28.86 286.5-28.88 287.48-28.91 287.97-28.96ZM318.33-7.86L316.04 0.34Q314.57 0.2 312.4 0.1 310.23 0 308.57 0L308.57 0 291.72 0 291.58-2.64 294.7-3.47Q294.8-3.71 294.9-4.79 294.99-5.86 295.04-7.52 295.09-9.18 295.09-11.13L295.09-11.13 295.09-17.58Q295.09-19.53 295.04-21.22 294.99-22.9 294.9-23.95 294.8-25 294.7-25.2L294.7-25.2 291.58-26.03 291.72-28.66 306.47-28.66Q307.59-28.66 309.18-28.69 310.77-28.71 312.28-28.78 313.79-28.86 314.77-28.96L314.77-28.96 316.19-21.44 313.16-21 311.25-25.39Q310.52-25.54 310.01-25.59 309.5-25.63 308.91-25.63L308.91-25.63 305.83-25.63Q304.91-25.63 304-25.61 303.1-25.59 302.61-25.49L302.61-25.49Q302.56-25.05 302.54-24.29 302.51-23.54 302.49-22.31 302.47-21.09 302.47-19.34L302.47-19.34 302.47-10.01Q302.47-8.25 302.49-6.98 302.51-5.71 302.54-4.86 302.56-4 302.61-3.52L302.61-3.52Q303.54-3.37 304.56-3.32 305.59-3.27 307.25-3.27L307.25-3.27 309.15-3.27Q310.47-3.27 311.03-3.3 311.6-3.32 311.89-3.37 312.18-3.42 312.62-3.47L312.62-3.47 315.36-8.45 318.33-7.86ZM312.48-9.67L309.55-9.67 309.11-12.94Q308.76-12.94 307.96-12.96 307.15-12.99 306.18-12.99L306.18-12.99 303.93-12.99Q303.05-12.99 302.29-12.94 301.54-12.89 301.29-12.84L301.29-12.84 301.29-16.6Q301.54-16.55 302.29-16.48 303.05-16.41 303.93-16.41L303.93-16.41 306.18-16.41Q307.15-16.41 307.96-16.43 308.76-16.46 309.11-16.46L309.11-16.46 309.55-19.68 312.48-19.68 312.48-9.67ZM334.1 0L320.92 0 320.77-2.64 323.9-3.47Q323.9-3.76 323.92-4.64 323.95-5.52 323.97-6.69 324-7.86 324.02-9.03 324.04-10.21 324.04-11.13L324.04-11.13 324.04-17.58Q324.04-19.53 324-21.19 323.95-22.85 323.85-23.93 323.75-25 323.65-25.2L323.65-25.2 320.53-26.03 320.68-28.66 333.96-28.66Q339.87-28.66 342.67-26.86 345.48-25.05 345.48-21.09L345.48-21.09Q345.48-18.7 343.97-16.82 342.45-14.94 339.82-13.87 337.18-12.79 333.76-12.79L333.76-12.79 330.39-12.79 330.39-15.82 332.59-15.82Q334.84-15.82 336.25-17.33 337.67-18.85 337.67-21.24L337.67-21.24Q337.67-23.44 336.5-24.58 335.32-25.73 333.08-25.73L333.08-25.73 331.52-25.73Q331.52-25.59 331.49-24.78 331.47-23.97 331.44-22.78 331.42-21.58 331.42-20.26 331.42-18.95 331.42-17.82L331.42-17.82 331.42-11.13Q331.42-10.11 331.44-8.59 331.47-7.08 331.52-5.66 331.56-4.25 331.56-3.47L331.56-3.47 334.25-2.64 334.1 0ZM347.19 0.59L347.19 0.59Q344.26 0.59 341.96-0.32 339.67-1.22 337.96-3.03 336.25-4.83 335.03-7.57L335.03-7.57 332.49-13.57 338.45-14.99 344.45-6.79Q345.33-5.62 346.29-4.69 347.24-3.76 348.31-3.13 349.39-2.49 350.61-2.15L350.61-2.15 350.56 0.29Q349.68 0.49 348.85 0.54 348.02 0.59 347.19 0.59Z" opacity="1" transform="matrix(1,0,0,1,0,0)" fill="#000000" class="wordmark-text-0" data-fill-palette-color="primary" id="text-0"></path></svg></g></svg></g><g transform="matrix(1,0,0,1,75.54431999999998,51.772368863583125)"><svg viewBox="0 0 244.43135999999996 21.413425642239844" height="21.413425642239844" width="244.43135999999996"><g transform="matrix(1,0,0,1,0,0)"><svg width="244.43135999999996" viewBox="5.25 -36.349998474121094 422.30999755859375 37" height="21.413425642239844" data-palette-color="#ffffff"><path d="M5.25-34.7L5.5-34.7 20.6-15.6 36.1-34.7 36.35-34.7 36.35-0.05 34.25-0.05 34.25-22.95Q34.25-24.65 34.48-27.15 34.7-29.65 34.95-30.75L34.95-30.75Q32.8-27.65 28.3-21.9 23.8-16.15 20.75-12.9L20.75-12.9 20-13.7Q16.05-17.8 11.6-23.3L11.6-23.3Q10.4-24.85 9-26.88 7.6-28.9 6.65-30.6L6.65-30.6Q7.35-25.15 7.35-22.95L7.35-22.95 7.35-0.05 5.25-0.05 5.25-34.7ZM46.15-11.75Q46.15-8.05 47.97-4.73 49.8-1.4 55.3-1.4L55.3-1.4Q57.35-1.4 59.15-1.98 60.95-2.55 63.2-3.8L63.2-3.8 64.15-2.25Q62.2-0.95 59.85-0.23 57.5 0.5 55 0.5L55 0.5Q49.8 0.5 46.92-2.8 44.05-6.1 44.05-11.65L44.05-11.65Q44.05-15.6 45.4-18.7 46.75-21.8 49.22-23.53 51.7-25.25 55.05-25.25L55.05-25.25Q57.95-25.25 60.22-23.93 62.5-22.6 63.77-20.28 65.05-17.95 65.05-14.95L65.05-14.95Q65.05-14.05 64.85-11.75L64.85-11.75 46.15-11.75ZM46.25-13.65L62.85-13.65Q62.95-14.2 62.95-15.05L62.95-15.05Q62.95-17.45 61.87-19.38 60.8-21.3 59-22.38 57.2-23.45 55.05-23.45L55.05-23.45Q51.55-23.45 49.12-20.75 46.7-18.05 46.25-13.65L46.25-13.65ZM71.75-17.7Q71.75-21.5 69.85-23.75L69.85-23.75 71.1-25Q72.25-24.05 72.82-22.85 73.4-21.65 73.65-19.9L73.65-19.9Q76.3-25.25 81.8-25.25L81.8-25.25Q84.5-25.25 86.3-23.93 88.1-22.6 88.85-20L88.85-20Q90.2-22.6 92.35-23.93 94.5-25.25 97.1-25.25L97.1-25.25Q100.45-25.25 102.5-23.18 104.55-21.1 104.5-17.4L104.5-17.4 104.3-0.05 102.3-0.05 102.4-16.85Q102.4-19.95 101.05-21.65 99.7-23.35 96.85-23.35L96.85-23.35Q91.9-23.35 89.15-18L89.15-18 89.15-0.05 87.05-0.05 87.05-16.85Q87.05-19.85 85.67-21.6 84.3-23.35 81.65-23.35L81.65-23.35Q79.1-23.35 76.92-21.8 74.75-20.25 73.85-18.05L73.85-18.05 73.85-0.05 71.75-0.05 71.75-17.7ZM122.54 0.45Q118.99 0.45 116.27-1.15 113.54-2.75 112.02-5.65 110.49-8.55 110.49-12.3L110.49-12.3Q110.49-16.1 112.02-19.03 113.54-21.95 116.29-23.6 119.04-25.25 122.59-25.25L122.59-25.25Q126.14-25.25 128.89-23.63 131.64-22 133.17-19.07 134.69-16.15 134.69-12.35L134.69-12.35Q134.69-8.6 133.17-5.68 131.64-2.75 128.89-1.15 126.14 0.45 122.54 0.45L122.54 0.45ZM122.59-1.45Q125.54-1.45 127.82-2.85 130.09-4.25 131.34-6.78 132.59-9.3 132.59-12.55L132.59-12.55Q132.59-15.75 131.34-18.2 130.09-20.65 127.82-22 125.54-23.35 122.59-23.35L122.59-23.35Q119.64-23.35 117.37-21.98 115.09-20.6 113.84-18.1 112.59-15.6 112.59-12.35L112.59-12.35Q112.59-9.15 113.84-6.68 115.09-4.2 117.37-2.83 119.64-1.45 122.59-1.45L122.59-1.45ZM150.49-25.25Q151.19-25.25 153.09-24.9L153.09-24.9 153.09-23Q151.64-23.25 150.59-23.25L150.59-23.25Q147.74-23.25 145.99-21.85L145.99-21.85Q145.24-21.2 144.39-20.18 143.54-19.15 142.94-18L142.94-18 142.94-0.05 140.84-0.05 140.84-18.1Q140.84-20.3 140.39-21.58 139.94-22.85 138.99-24.05L138.99-24.05 140.39-25.4Q141.49-24.35 142.17-23.03 142.84-21.7 142.94-20.25L142.94-20.25Q143.59-21.55 144.49-22.6 145.39-23.65 146.29-24.2L146.29-24.2Q147.99-25.25 150.49-25.25L150.49-25.25ZM158.19 0L158.19-25 160.44-25 160.44 0 158.19 0ZM159.29-28.75Q158.49-28.75 157.99-29.25 157.49-29.75 157.49-30.55L157.49-30.55Q157.49-31.35 157.99-31.85 158.49-32.35 159.29-32.35L159.29-32.35Q160.09-32.35 160.61-31.85 161.14-31.35 161.14-30.55L161.14-30.55Q161.14-29.75 160.61-29.25 160.09-28.75 159.29-28.75L159.29-28.75ZM165.84 0L165.84-0.45 181.09-22.8 167.69-22.8 167.69-24.75 184.84-24.75 184.84-24.55 169.34-1.9 184.84-1.9 184.84 0.05 165.84 0ZM191.43-11.75Q191.43-8.05 193.26-4.73 195.08-1.4 200.58-1.4L200.58-1.4Q202.63-1.4 204.43-1.98 206.23-2.55 208.48-3.8L208.48-3.8 209.43-2.25Q207.48-0.95 205.13-0.23 202.78 0.5 200.28 0.5L200.28 0.5Q195.08 0.5 192.21-2.8 189.33-6.1 189.33-11.65L189.33-11.65Q189.33-15.6 190.68-18.7 192.03-21.8 194.51-23.53 196.98-25.25 200.33-25.25L200.33-25.25Q203.23-25.25 205.51-23.93 207.78-22.6 209.06-20.28 210.33-17.95 210.33-14.95L210.33-14.95Q210.33-14.05 210.13-11.75L210.13-11.75 191.43-11.75ZM191.53-13.65L208.13-13.65Q208.23-14.2 208.23-15.05L208.23-15.05Q208.23-17.45 207.16-19.38 206.08-21.3 204.28-22.38 202.48-23.45 200.33-23.45L200.33-23.45Q196.83-23.45 194.41-20.75 191.98-18.05 191.53-13.65L191.53-13.65ZM229.83-21.05Q229.63-21.8 228.98-22.58 228.33-23.35 227.53-23.9L227.53-23.9 228.58-25.55Q229.83-24.8 230.58-23.78 231.33-22.75 231.78-21.35L231.78-21.35 237.88-3 245.03-24.85 247.38-24.85 254.48-3 261.63-24.85 263.73-24.85 255.68-0.1 253.33-0.1 246.18-21.95 239.03-0.1 236.63-0.1 229.83-21.05ZM269.23 0L269.23-25 271.48-25 271.48 0 269.23 0ZM270.33-28.75Q269.53-28.75 269.03-29.25 268.53-29.75 268.53-30.55L268.53-30.55Q268.53-31.35 269.03-31.85 269.53-32.35 270.33-32.35L270.33-32.35Q271.13-32.35 271.65-31.85 272.18-31.35 272.18-30.55L272.18-30.55Q272.18-29.75 271.65-29.25 271.13-28.75 270.33-28.75L270.33-28.75ZM286.37 0.65Q282.87 0.65 281.2-1.23 279.52-3.1 279.52-7L279.52-7 279.52-31.15 281.62-31.15 281.62-24.75 289.67-24.75 289.67-22.75 281.62-22.75 281.62-7Q281.62-3.8 283.05-2.53 284.47-1.25 286.32-1.25L286.32-1.25Q288.02-1.25 289.42-2L289.42-2 290.47-0.25Q288.97 0.65 286.37 0.65L286.37 0.65ZM296.02-36.35L298.12-36.35 298.12-19.9Q299.77-22.65 301.89-23.95 304.02-25.25 307.17-25.25L307.17-25.25Q314.97-25.25 314.97-17.4L314.97-17.4 314.97-0.05 312.87-0.05 312.87-16.85Q312.87-20.1 311.39-21.73 309.92-23.35 306.87-23.35L306.87-23.35Q304.02-23.35 302.12-22.03 300.22-20.7 298.12-17.9L298.12-17.9 298.12-0.05 296.02-0.05 296.02-36.35ZM336.81-11.75Q336.81-8.05 338.64-4.73 340.46-1.4 345.96-1.4L345.96-1.4Q348.01-1.4 349.81-1.98 351.62-2.55 353.87-3.8L353.87-3.8 354.81-2.25Q352.87-0.95 350.51-0.23 348.16 0.5 345.66 0.5L345.66 0.5Q340.46 0.5 337.59-2.8 334.71-6.1 334.71-11.65L334.71-11.65Q334.71-15.6 336.06-18.7 337.41-21.8 339.89-23.53 342.37-25.25 345.71-25.25L345.71-25.25Q348.62-25.25 350.89-23.93 353.16-22.6 354.44-20.28 355.71-17.95 355.71-14.95L355.71-14.95Q355.71-14.05 355.51-11.75L355.51-11.75 336.81-11.75ZM336.91-13.65L353.51-13.65Q353.62-14.2 353.62-15.05L353.62-15.05Q353.62-17.45 352.54-19.38 351.46-21.3 349.66-22.38 347.87-23.45 345.71-23.45L345.71-23.45Q342.21-23.45 339.79-20.75 337.37-18.05 336.91-13.65L336.91-13.65ZM378.96 0.25Q377.86-0.65 377.39-1.63 376.91-2.6 376.36-4.4L376.36-4.4Q374.56 0.45 368.36 0.45L368.36 0.45Q364.36 0.45 362.16-1.55 359.96-3.55 359.96-7.15L359.96-7.15Q359.96-11 362.61-12.95 365.26-14.9 370.41-14.9L370.41-14.9 376.26-14.9 376.26-17.1Q376.26-20.45 374.91-21.98 373.56-23.5 370.46-23.5L370.46-23.5Q368.36-23.5 366.29-22.85 364.21-22.2 362.56-20.95L362.56-20.95 361.56-22.5Q365.31-25.5 370.51-25.5L370.51-25.5Q374.51-25.5 376.44-23.58 378.36-21.65 378.36-17.65L378.36-17.65 378.36-7.05Q378.36-3.15 380.21-1L380.21-1 378.96 0.25ZM368.41-1.45Q371.96-1.45 374.11-3.48 376.26-5.5 376.26-8.75L376.26-8.75 376.26-13 370.66-13Q366.11-13 364.09-11.6 362.06-10.2 362.06-7.2L362.06-7.2Q362.06-4.4 363.76-2.93 365.46-1.45 368.41-1.45L368.41-1.45ZM393.21 0.55Q390.66 0.55 388.46-0.35 386.26-1.25 384.21-3.15L384.21-3.15 385.41-4.6Q389.06-1.35 393.26-1.35L393.26-1.35Q396.11-1.35 397.96-2.8 399.81-4.25 399.81-6.7L399.81-6.7Q399.81-8.25 399.01-9.25 398.21-10.25 396.83-10.95 395.46-11.65 392.66-12.8L392.66-12.8Q390.06-13.85 388.66-14.6 387.26-15.35 386.38-16.53 385.51-17.7 385.51-19.45L385.51-19.45Q385.51-22.25 387.58-23.95 389.66-25.65 393.11-25.65L393.11-25.65Q396.31-25.65 399.06-23.9L399.06-23.9 398.06-22.3Q395.61-23.75 393.16-23.75L393.16-23.75Q390.71-23.75 389.19-22.55 387.66-21.35 387.66-19.45L387.66-19.45Q387.66-18.4 388.24-17.68 388.81-16.95 390.16-16.23 391.51-15.5 394.41-14.25L394.41-14.25Q397.41-12.95 398.86-12.1 400.31-11.25 401.13-10.05 401.96-8.85 401.96-6.95L401.96-6.95Q401.96-3.5 399.56-1.48 397.16 0.55 393.21 0.55L393.21 0.55ZM408.66-11.75Q408.66-8.05 410.48-4.73 412.31-1.4 417.81-1.4L417.81-1.4Q419.86-1.4 421.66-1.98 423.46-2.55 425.71-3.8L425.71-3.8 426.66-2.25Q424.71-0.95 422.36-0.23 420.01 0.5 417.51 0.5L417.51 0.5Q412.31 0.5 409.43-2.8 406.56-6.1 406.56-11.65L406.56-11.65Q406.56-15.6 407.91-18.7 409.26-21.8 411.73-23.53 414.21-25.25 417.56-25.25L417.56-25.25Q420.46-25.25 422.73-23.93 425.01-22.6 426.28-20.28 427.56-17.95 427.56-14.95L427.56-14.95Q427.56-14.05 427.36-11.75L427.36-11.75 408.66-11.75ZM408.76-13.65L425.36-13.65Q425.46-14.2 425.46-15.05L425.46-15.05Q425.46-17.45 424.38-19.38 423.31-21.3 421.51-22.38 419.71-23.45 417.56-23.45L417.56-23.45Q414.06-23.45 411.63-20.75 409.21-18.05 408.76-13.65L408.76-13.65Z" opacity="1" transform="matrix(1,0,0,1,0,0)" fill="#000000" class="slogan-text-1" data-fill-palette-color="secondary" id="text-1"></path></svg></g></svg></g></svg></g></svg></g><g transform="matrix(1,0,0,1,108.58669477091289,0)"><svg viewBox="0 0 178.34661045817415 178.34661045817415" height="178.34661045817415" width="178.34661045817415"><g><svg></svg></g><g id="icon-0"><svg viewBox="0 0 178.34661045817415 178.34661045817415" height="178.34661045817415" width="178.34661045817415"><g><path d="M0 89.173c0-49.249 39.924-89.173 89.173-89.173 49.249 0 89.173 39.924 89.174 89.173 0 49.249-39.924 89.173-89.174 89.174-49.249 0-89.173-39.924-89.173-89.174zM89.173 174.569c47.163 0 85.396-38.233 85.396-85.396 0-47.163-38.233-85.396-85.396-85.396-47.163 0-85.396 38.233-85.396 85.396 0 47.163 38.233 85.396 85.396 85.396z" data-fill-palette-color="accent" fill="#000000" stroke="transparent"></path><ellipse rx="88.2815721767962" ry="88.2815721767962" cx="89.17330522908708" cy="89.17330522908708" fill="#000000" stroke="transparent" stroke-width="0" fill-opacity="1" data-fill-palette-color="accent"></ellipse></g><g transform="matrix(1,0,0,1,37.43362858369183,37.43108195181638)"><svg viewBox="0 0 103.4793532907905 103.48444655454139" height="103.48444655454139" width="103.4793532907905"><g><svg xmlns="http://www.w3.org/2000/svg" xmlns:xlink="http://www.w3.org/1999/xlink" version="1.1" x="0" y="0" viewBox="0.35833266377449036 0.3587188720703125 89.28327178955078 89.28766632080078" enable-background="new 0 0 90 90" xml:space="preserve" height="103.48444655454139" width="103.4793532907905" class="icon-s-0" data-fill-palette-color="quaternary" id="s-0"><polygon points="57.928,58.169 57.875,76.027 45.397,63.548 45.397,45.639 " fill="#ffffff" data-fill-palette-color="quaternary"></polygon><polygon points="76.027,57.875 58.475,57.927 45.826,45.279 63.432,45.279 " fill="#ffffff" data-fill-palette-color="quaternary"></polygon><polygon points="76.027,32.125 63.432,44.721 45.707,44.721 58.355,32.073 " fill="#ffffff" data-fill-palette-color="quaternary"></polygon><polygon points="44.838,45.59 44.838,63.314 32.125,76.027 32.074,58.355 " fill="#ffffff" data-fill-palette-color="quaternary"></polygon><polygon points="57.928,31.712 45.397,44.243 45.397,26.452 57.875,13.974 " fill="#ffffff" data-fill-palette-color="quaternary"></polygon><polygon points="44.838,26.687 44.838,44.291 32.074,31.526 32.125,13.974 " fill="#ffffff" data-fill-palette-color="quaternary"></polygon><polygon points="44.479,44.721 26.569,44.721 13.974,32.125 31.832,32.073 " fill="#ffffff" data-fill-palette-color="quaternary"></polygon><polygon points="44.36,45.279 31.712,57.927 13.974,57.875 26.569,45.279 " fill="#ffffff" data-fill-palette-color="quaternary"></polygon><rect x="58.48" y="58.48" width="18.049" height="18.049" fill="#ffffff" data-fill-palette-color="quaternary"></rect><polygon points="76.527,13.474 76.527,31.516 58.914,31.516 58.912,31.518 58.484,31.516 58.484,13.474 " fill="#ffffff" data-fill-palette-color="quaternary"></polygon><polygon points="31.518,30.971 31.516,31.516 13.474,31.516 13.474,13.474 31.516,13.474 31.516,30.968 " fill="#ffffff" data-fill-palette-color="quaternary"></polygon><rect x="13.471" y="58.48" width="18.05" height="18.049" fill="#ffffff" data-fill-palette-color="quaternary"></rect><rect x="67.864" y="35.981" transform="matrix(0.7071 -0.7071 0.7071 0.7071 -9.3022 67.5465)" width="18.042" height="18.042" fill="#ffffff" data-fill-palette-color="quaternary"></rect><rect x="35.979" y="4.094" transform="matrix(0.7071 -0.7071 0.7071 0.7071 3.9068 35.6621)" width="18.042" height="18.042" fill="#ffffff" data-fill-palette-color="quaternary"></rect><rect x="4.095" y="35.98" transform="matrix(0.7071 -0.7071 0.7071 0.7071 -27.9787 22.4536)" width="18.041" height="18.041" fill="#ffffff" data-fill-palette-color="quaternary"></rect><rect x="35.98" y="67.865" transform="matrix(0.7071 -0.7071 0.7071 0.7071 -41.1877 54.3437)" width="18.04" height="18.041" fill="#ffffff" data-fill-palette-color="quaternary"></rect></svg></g></svg></g></svg></g></svg></g><g></g></svg></g><defs></defs></svg><rect width="360.374407372755" height="247.2" fill="none" stroke="none" visibility="hidden"></rect></g></svg></g></svg>